<svg height="41.97" viewBox="0 0 200 41.97" width="200" xmlns="http://www.w3.org/2000/svg"><path d="m891.661 7686.59v1.43a.877.877 0 0 1 -.88.88h-21a9.783 9.783 0 0 1 -9.782-9.78v-1.43a.879.879 0 0 1 .883-.88h20.993a9.741 9.741 0 0 1 9.491 7.41c.006.02.012.04.016.06a9.8 9.8 0 0 1 .279 2.31zm-8.351 5.17h-13.525a9.764 9.764 0 0 0 -9.782 9.78v1.43a.886.886 0 0 0 .883.88h13.525a9.781 9.781 0 0 0 9.779-9.78v-1.43a.877.877 0 0 0 -.88-.88zm-12.094 14.94h-10.33a.888.888 0 0 0 -.883.89v10.33a.877.877 0 0 0 .883.87h1.431a9.774 9.774 0 0 0 9.779-9.78v-1.42a.885.885 0 0 0 -.88-.89zm53.866-18.19a3.8 3.8 0 0 1 -1.492-.3 3.876 3.876 0 0 1 -2.066-2.05 3.717 3.717 0 0 1 -.3-1.51 3.8 3.8 0 0 1 .3-1.52 3.935 3.935 0 0 1 .827-1.21 3.864 3.864 0 0 1 1.239-.83 3.9 3.9 0 0 1 4.246.83 3.82 3.82 0 0 1 0 5.46 3.8 3.8 0 0 1 -2.754 1.13zm-2.984 25.51v-22.49h6.013v22.49h-6.011zm11.521-32.86h6.014v9.87l-.367 3.21h.367a6.778 6.778 0 0 1 2.571-2.43 8.521 8.521 0 0 1 4.315-1.01 9.834 9.834 0 0 1 4.108.89 11.134 11.134 0 0 1 3.443 2.48 11.822 11.822 0 0 1 2.364 3.79 13.743 13.743 0 0 1 0 9.64 11.822 11.822 0 0 1 -2.364 3.79 10.943 10.943 0 0 1 -3.443 2.47 9.691 9.691 0 0 1 -4.108.9 8.521 8.521 0 0 1 -4.315-1.01 6.778 6.778 0 0 1 -2.571-2.43h-.367v2.7h-5.647zm11.661 28.05a5.856 5.856 0 0 0 2.272-.46 6.074 6.074 0 0 0 1.9-1.29 6.225 6.225 0 0 0 1.332-2.02 7.258 7.258 0 0 0 0-5.32 6.225 6.225 0 0 0 -1.332-2.02 6.074 6.074 0 0 0 -1.9-1.29 5.856 5.856 0 0 0 -2.272-.46 6.021 6.021 0 0 0 -2.273.44 5.676 5.676 0 0 0 -1.9 1.26 6.315 6.315 0 0 0 -1.331 2.02 7.524 7.524 0 0 0 0 5.42 6.315 6.315 0 0 0 1.331 2.02 5.676 5.676 0 0 0 1.9 1.26 6.021 6.021 0 0 0 2.273.44zm26.532-18.41a12.64 12.64 0 0 1 4.8.89 11.5 11.5 0 0 1 3.764 2.48 11.346 11.346 0 0 1 2.479 3.79 13.413 13.413 0 0 1 0 9.64 11.069 11.069 0 0 1 -6.243 6.26 13.234 13.234 0 0 1 -9.594 0 11.069 11.069 0 0 1 -6.243-6.26 13.426 13.426 0 0 1 0-9.64 11.346 11.346 0 0 1 2.479-3.79 11.5 11.5 0 0 1 3.764-2.48 12.64 12.64 0 0 1 4.794-.89zm0 18.41a5.9 5.9 0 0 0 2.226-.44 5.68 5.68 0 0 0 1.906-1.26 6.025 6.025 0 0 0 1.308-2.02 7.859 7.859 0 0 0 0-5.42 6.025 6.025 0 0 0 -1.308-2.02 5.68 5.68 0 0 0 -1.906-1.26 5.9 5.9 0 0 0 -2.226-.44 5.844 5.844 0 0 0 -2.249.44 5.713 5.713 0 0 0 -1.882 1.26 6.042 6.042 0 0 0 -1.309 2.02 7.875 7.875 0 0 0 0 5.42 6.042 6.042 0 0 0 1.309 2.02 5.713 5.713 0 0 0 1.882 1.26 5.844 5.844 0 0 0 2.249.44zm20.979-14.74h.367a7.647 7.647 0 0 1 2.846-2.68 8.3 8.3 0 0 1 4.086-.99 9.352 9.352 0 0 1 3.72.69 6.854 6.854 0 0 1 2.64 1.95 8.532 8.532 0 0 1 1.56 3.03 13.715 13.715 0 0 1 .53 3.92v13.63h-6.02v-12.89a5.193 5.193 0 0 0 -1.08-3.61 4.057 4.057 0 0 0 -3.141-1.17 4.4 4.4 0 0 0 -2.18.53 5.138 5.138 0 0 0 -1.607 1.42 6.433 6.433 0 0 0 -1.01 2.12 9.463 9.463 0 0 0 -.344 2.59v11.01h-6.014v-22.49h5.647zm34.339 17.17h-.37a9.884 9.884 0 0 1 -2.55 2.2 7.215 7.215 0 0 1 -3.83.92 9.346 9.346 0 0 1 -3.28-.57 8.785 8.785 0 0 1 -2.69-1.59 7.113 7.113 0 0 1 -1.79-2.43 7.475 7.475 0 0 1 -.64-3.12 7.07 7.07 0 0 1 .69-3.15 7.223 7.223 0 0 1 1.93-2.41 8.594 8.594 0 0 1 2.91-1.53 11.84 11.84 0 0 1 3.65-.53 15.854 15.854 0 0 1 3.63.34 18.76 18.76 0 0 1 2.34.71v-.68a3.664 3.664 0 0 0 -1.43-2.96 5.355 5.355 0 0 0 -3.53-1.18 6.625 6.625 0 0 0 -5.28 2.62l-4.36-2.98a11.831 11.831 0 0 1 9.78-4.5q5.235 0 7.99 2.46c1.83 1.63 2.75 4.06 2.75 7.27v13.49h-5.92zm0-6.75a12.405 12.405 0 0 0 -2.18-.8 9.53 9.53 0 0 0 -2.46-.3 5.179 5.179 0 0 0 -3.33.94 2.874 2.874 0 0 0 -1.17 2.32 2.6 2.6 0 0 0 1.13 2.2 4.262 4.262 0 0 0 2.59.83 5.47 5.47 0 0 0 2.2-.44 5.4 5.4 0 0 0 1.73-1.15 5.116 5.116 0 0 0 1.49-3.6zm27.22 6.43h-.37a6.8 6.8 0 0 1 -2.57 2.43 8.51 8.51 0 0 1 -4.31 1.01 9.694 9.694 0 0 1 -4.11-.9 10.886 10.886 0 0 1 -3.44-2.47 11.716 11.716 0 0 1 -2.37-3.79 13.787 13.787 0 0 1 0-9.64 11.716 11.716 0 0 1 2.37-3.79 11.075 11.075 0 0 1 3.44-2.48 9.837 9.837 0 0 1 4.11-.89 8.51 8.51 0 0 1 4.31 1.01 6.8 6.8 0 0 1 2.57 2.43h.37l-.37-3.21v-9.87h6.02v32.86h-5.65zm-6.01-2.11a6.036 6.036 0 0 0 2.27-.44 5.636 5.636 0 0 0 1.9-1.26 6.231 6.231 0 0 0 1.33-2.02 7.455 7.455 0 0 0 0-5.42 6.231 6.231 0 0 0 -1.33-2.02 5.636 5.636 0 0 0 -1.9-1.26 6.036 6.036 0 0 0 -2.27-.44 5.877 5.877 0 0 0 -2.28.46 6.034 6.034 0 0 0 -1.9 1.29 6.126 6.126 0 0 0 -1.33 2.02 7.192 7.192 0 0 0 0 5.32 6.126 6.126 0 0 0 1.33 2.02 6.034 6.034 0 0 0 1.9 1.29 5.877 5.877 0 0 0 2.28.46zm-140.34-18.15a4.264 4.264 0 0 1 7.367-2.91l4.252-4.25a10.269 10.269 0 0 0 -17.631 7.16v22.96h6.012v-12.69h7.681v-6.01h-7.681z" fill="#039fd6" fill-rule="evenodd" transform="translate(-860 -7676.81)"/></svg>